<svg xmlns="http://www.w3.org/2000/svg" viewBox="0 0 32 32">
  <rect width="32" height="32" rx="8" fill="#2563EB"/>
  <g transform="translate(6, 2)">
    <path d="M16 4C13.5 2.5 11 3.5 10 5C9 3.5 6.5 2.5 4 4C1.5 5.5 0.5 8.5 1.2 11.5C2 15 3.5 19 5 23.5C6 26 6.8 27.5 7.5 28C8 28.3 8.5 28 8.8 27.5C9.2 26.5 9.5 24 10 22C10.5 24 10.8 26.5 11.2 27.5C11.5 28 12 28.3 12.5 28C13.2 27.5 14 26 15 23.5C16.5 19 18 15 18.8 11.5C19.5 8.5 18.5 5.5 16 4Z" stroke="white" stroke-width="1.5" fill="none"/>
  </g>
</svg>
